<svg width="86" height="86" viewBox="0 0 86 86" fill="none" xmlns="http://www.w3.org/2000/svg">
<g clip-path="url(#clip0_640_1199)">
<path d="M80.625 38.9319V37.5882H81.9688C83.0379 37.5882 84.0633 37.1634 84.8193 36.4074C85.5753 35.6514 86 34.6261 86 33.5569V28.1819C86 28.1389 85.9785 28.1013 85.9758 28.0583C85.9673 27.9671 85.9493 27.877 85.9221 27.7895C85.8441 27.5412 85.6956 27.3209 85.4948 27.1553C85.4625 27.1284 85.441 27.0908 85.4061 27.0639L46.7383 1.17254C45.6331 0.429845 44.3316 0.0332031 43 0.0332031C41.6684 0.0332031 40.367 0.429845 39.2617 1.17254L0.596625 27.0666C0.559 27.0908 0.540187 27.1284 0.507937 27.158C0.304159 27.3209 0.155057 27.5422 0.080625 27.7922C0.0534285 27.8797 0.0354147 27.9698 0.026875 28.061C0.026875 28.104 0.0026875 28.1389 0.0026875 28.1846V33.5596C0.0026875 34.6288 0.427407 35.6541 1.18341 36.4101C1.93942 37.1661 2.96478 37.5909 4.03394 37.5909H5.375V38.9346C5.37844 39.7654 5.63849 40.5748 6.11956 41.2522C6.60062 41.9295 7.27922 42.4417 8.0625 42.7186V69.9618C7.27922 70.2387 6.60062 70.7509 6.11956 71.4282C5.63849 72.1056 5.37844 72.915 5.375 73.7458V75.2159H4.03125C2.9621 75.2159 1.93673 75.6406 1.18073 76.3966C0.42472 77.1526 0 78.1779 0 79.2471L0 84.6221C0 84.9785 0.141573 85.3203 0.393575 85.5723C0.645577 85.8243 0.987365 85.9659 1.34375 85.9659H84.6562C85.0126 85.9659 85.3544 85.8243 85.6064 85.5723C85.8584 85.3203 86 84.9785 86 84.6221V79.2471C86 78.1779 85.5753 77.1526 84.8193 76.3966C84.0633 75.6406 83.0379 75.2159 81.9688 75.2159H80.625V73.7458C80.6216 72.915 80.3615 72.1056 79.8804 71.4282C79.3994 70.7509 78.7208 70.2387 77.9375 69.9618V42.7159C78.7208 42.439 79.3994 41.9268 79.8804 41.2495C80.3615 40.5721 80.6216 39.7627 80.625 38.9319ZM40.7586 3.40585C41.4213 2.95918 42.2022 2.72055 43.0013 2.72055C43.8005 2.72055 44.5814 2.95918 45.2441 3.40585L80.2353 26.8382H5.76469L40.7586 3.40585ZM8.0625 73.7431C8.06528 73.4445 8.16865 73.1555 8.35591 72.9229C8.54317 72.6903 8.80338 72.5276 9.0945 72.4612C9.19549 72.4945 9.30019 72.5152 9.40625 72.523H17.4688C17.5748 72.5152 17.6795 72.4945 17.7805 72.4612C18.0716 72.5276 18.3318 72.6903 18.5191 72.9229C18.7063 73.1555 18.8097 73.4445 18.8125 73.7431V75.0868H8.0625V73.7431ZM9.40625 40.2757C9.04987 40.2757 8.70808 40.1341 8.45608 39.8821C8.20407 39.6301 8.0625 39.2883 8.0625 38.9319V37.5882H18.8125V38.9319C18.8125 39.2883 18.6709 39.6301 18.4189 39.8821C18.1669 40.1341 17.8251 40.2757 17.4688 40.2757H9.40625ZM16.125 42.9632V69.7118H10.75V42.9632H16.125ZM81.9688 77.9007C82.3251 77.9007 82.6669 78.0422 82.9189 78.2942C83.1709 78.5462 83.3125 78.888 83.3125 79.2444V83.2757H2.6875V79.2444C2.6875 78.888 2.82907 78.5462 3.08108 78.2942C3.33308 78.0422 3.67487 77.9007 4.03125 77.9007H32.25C32.6064 77.9007 32.9482 77.7591 33.2002 77.5071C33.4522 77.2551 33.5938 76.9133 33.5938 76.5569C33.5938 76.2005 33.4522 75.8587 33.2002 75.6067C32.9482 75.3547 32.6064 75.2132 32.25 75.2132H21.5V73.7431C21.4966 72.9123 21.2365 72.1029 20.7554 71.4255C20.2744 70.7482 19.5958 70.236 18.8125 69.9591V42.7159C19.5958 42.439 20.2744 41.9268 20.7554 41.2495C21.2365 40.5721 21.4966 39.7627 21.5 38.9319V37.5882H29.5625C29.9189 37.5882 30.2607 37.4466 30.5127 37.1946C30.7647 36.9426 30.9062 36.6008 30.9062 36.2444C30.9062 35.888 30.7647 35.5462 30.5127 35.2942C30.2607 35.0422 29.9189 34.9007 29.5625 34.9007H4.03125C3.67487 34.9007 3.33308 34.7591 3.08108 34.5071C2.82907 34.2551 2.6875 33.9133 2.6875 33.5569V29.5257H83.3125V33.5569C83.3125 33.9133 83.1709 34.2551 82.9189 34.5071C82.6669 34.7591 82.3251 34.9007 81.9688 34.9007H55.0938C54.7374 34.9007 54.3956 35.0422 54.1436 35.2942C53.8916 35.5462 53.75 35.888 53.75 36.2444C53.75 36.6008 53.8916 36.9426 54.1436 37.1946C54.3956 37.4466 54.7374 37.5882 55.0938 37.5882H64.5V38.9319C64.5034 39.7627 64.7635 40.5721 65.2446 41.2495C65.7256 41.9268 66.4042 42.439 67.1875 42.7159V69.9618C66.4042 70.2387 65.7256 70.7509 65.2446 71.4282C64.7635 72.1056 64.5034 72.915 64.5 73.7458V75.2159H52.4062C52.0499 75.2159 51.7081 75.3574 51.4561 75.6094C51.2041 75.8614 51.0625 76.2032 51.0625 76.5596C51.0625 76.916 51.2041 77.2578 51.4561 77.5098C51.7081 77.7618 52.0499 77.9034 52.4062 77.9034L81.9688 77.9007ZM76.5938 72.5257C76.6998 72.5179 76.8045 72.4972 76.9055 72.4638C77.1966 72.5303 77.4568 72.693 77.6441 72.9256C77.8314 73.1582 77.9347 73.4472 77.9375 73.7458V75.0895H67.1875V73.7458C67.1903 73.4472 67.2936 73.1582 67.4809 72.9256C67.6682 72.693 67.9284 72.5303 68.2195 72.4638C68.3205 72.4972 68.4252 72.5179 68.5312 72.5257H76.5938ZM69.875 69.7118V42.9632H75.25V69.7118H69.875ZM76.5938 40.2757H68.5312C68.1749 40.2757 67.8331 40.1341 67.5811 39.8821C67.3291 39.6301 67.1875 39.2883 67.1875 38.9319V37.5882H77.9375V38.9319C77.9375 39.2883 77.7959 39.6301 77.5439 39.8821C77.2919 40.1341 76.9501 40.2757 76.5938 40.2757ZM60.4688 52.3694C60.4718 49.1658 59.5938 46.023 57.9309 43.2849C56.2679 40.5467 53.884 38.3185 51.0398 36.8441C48.1957 35.3697 45.0008 34.7057 41.8047 34.9249C38.6086 35.1441 35.5343 36.238 32.9181 38.087C30.3019 39.9359 28.2445 42.4686 26.9709 45.4082C25.6974 48.3478 25.2567 51.581 25.6971 54.7542C26.1375 57.9274 27.4421 60.9184 29.468 63.4C31.494 65.8817 34.1634 67.7584 37.1842 68.825C37.521 68.9419 37.8905 68.9202 38.2113 68.7647C38.5321 68.6092 38.778 68.3327 38.8948 67.9959C39.0117 67.6591 38.9901 67.2897 38.8346 66.9689C38.6791 66.6481 38.4025 66.4022 38.0658 66.2853C34.7795 65.1215 32.0104 62.8337 30.2476 59.8261C28.4849 56.8184 27.8419 53.2845 28.4323 49.8486C29.0227 46.4128 30.8085 43.2962 33.4742 41.0496C36.1398 38.8029 39.5138 37.5707 43 37.5707C46.4862 37.5707 49.8602 38.8029 52.5258 41.0496C55.1915 43.2962 56.9773 46.4128 57.5677 49.8486C58.1581 53.2845 57.5151 56.8184 55.7524 59.8261C53.9896 62.8337 51.2205 65.1215 47.9342 66.2853C47.6329 66.3885 47.378 66.5955 47.2151 66.8692C47.0522 67.143 46.9918 67.4657 47.0448 67.7798C47.0977 68.0939 47.2605 68.379 47.5042 68.5843C47.7478 68.7895 48.0564 68.9015 48.375 68.9002C48.5249 68.9005 48.6738 68.876 48.8158 68.8277C52.2255 67.6322 55.1789 65.4057 57.2668 62.4568C59.3548 59.5079 60.4737 55.9826 60.4688 52.3694ZM43 10.5869C41.9369 10.5869 40.8977 10.9021 40.0138 11.4927C39.1299 12.0833 38.441 12.9228 38.0341 13.9049C37.6273 14.8871 37.5209 15.9678 37.7283 17.0105C37.9357 18.0531 38.4476 19.0108 39.1993 19.7626C39.951 20.5143 40.9087 21.0262 41.9514 21.2336C42.994 21.441 44.0748 21.3345 45.0569 20.9277C46.0391 20.5209 46.8785 19.832 47.4692 18.948C48.0598 18.0641 48.375 17.0249 48.375 15.9619C48.375 14.5363 47.8087 13.1692 46.8007 12.1612C45.7927 11.1531 44.4255 10.5869 43 10.5869ZM43 18.6494C42.4685 18.6494 41.9489 18.4917 41.5069 18.1964C41.0649 17.9011 40.7205 17.4814 40.5171 16.9903C40.3137 16.4992 40.2604 15.9589 40.3641 15.4375C40.4678 14.9162 40.7238 14.4374 41.0997 14.0615C41.4755 13.6856 41.9544 13.4297 42.4757 13.326C42.997 13.2223 43.5374 13.2755 44.0285 13.4789C44.5195 13.6823 44.9393 14.0268 45.2346 14.4688C45.5299 14.9107 45.6875 15.4303 45.6875 15.9619C45.6875 16.6746 45.4044 17.3582 44.9004 17.8622C44.3963 18.3662 43.7128 18.6494 43 18.6494ZM45.8514 71.8081L44.3438 73.3158V68.4944C44.3438 68.138 44.2022 67.7962 43.9502 67.5442C43.6982 67.2922 43.3564 67.1507 43 67.1507C42.6436 67.1507 42.3018 67.2922 42.0498 67.5442C41.7978 67.7962 41.6562 68.138 41.6562 68.4944V73.3131L40.1486 71.8054C39.8951 71.5606 39.5557 71.4252 39.2034 71.4283C38.851 71.4313 38.514 71.5726 38.2649 71.8218C38.0157 72.0709 37.8744 72.408 37.8713 72.7603C37.8683 73.1126 38.0037 73.452 38.2485 73.7055L42.0459 77.5029C42.1708 77.6281 42.319 77.7273 42.4823 77.7951C42.6455 77.8628 42.8206 77.8977 42.9973 77.8977C43.1741 77.8977 43.3491 77.8628 43.5123 77.7951C43.6756 77.7273 43.8239 77.6281 43.9487 77.5029L47.7461 73.7055C47.9909 73.452 48.1263 73.1126 48.1233 72.7603C48.1202 72.408 47.9789 72.0709 47.7298 71.8218C47.4806 71.5726 47.1436 71.4313 46.7913 71.4283C46.4389 71.4252 46.0995 71.5606 45.8461 71.8054L45.8514 71.8081ZM44.3438 59.0882H41.6562C40.9435 59.0882 40.2599 58.805 39.7559 58.301C39.2519 57.797 38.9688 57.1134 38.9688 56.4007C38.9688 56.0443 38.8272 55.7025 38.5752 55.4505C38.3232 55.1985 37.9814 55.0569 37.625 55.0569C37.2686 55.0569 36.9268 55.1985 36.6748 55.4505C36.4228 55.7025 36.2812 56.0443 36.2812 56.4007C36.2812 57.8262 36.8475 59.1934 37.8556 60.2014C38.8636 61.2094 40.2307 61.7757 41.6562 61.7757V63.1194C41.6562 63.4758 41.7978 63.8176 42.0498 64.0696C42.3018 64.3216 42.6436 64.4632 43 64.4632C43.3564 64.4632 43.6982 64.3216 43.9502 64.0696C44.2022 63.8176 44.3438 63.4758 44.3438 63.1194V61.7757C45.7693 61.7757 47.1364 61.2094 48.1444 60.2014C49.1525 59.1934 49.7188 57.8262 49.7188 56.4007C49.7188 54.9751 49.1525 53.608 48.1444 52.6C47.1364 51.592 45.7693 51.0257 44.3438 51.0257H41.6562C40.9435 51.0257 40.2599 50.7425 39.7559 50.2385C39.2519 49.7345 38.9688 49.0509 38.9688 48.3382C38.9688 47.6254 39.2519 46.9418 39.7559 46.4378C40.2599 45.9338 40.9435 45.6507 41.6562 45.6507H44.3438C45.0565 45.6507 45.7401 45.9338 46.2441 46.4378C46.7481 46.9418 47.0312 47.6254 47.0312 48.3382C47.0312 48.6945 47.1728 49.0363 47.4248 49.2883C47.6768 49.5403 48.0186 49.6819 48.375 49.6819C48.7314 49.6819 49.0732 49.5403 49.3252 49.2883C49.5772 49.0363 49.7188 48.6945 49.7188 48.3382C49.7188 46.9126 49.1525 45.5455 48.1444 44.5375C47.1364 43.5295 45.7693 42.9632 44.3438 42.9632V41.6194C44.3438 41.263 44.2022 40.9212 43.9502 40.6692C43.6982 40.4172 43.3564 40.2757 43 40.2757C42.6436 40.2757 42.3018 40.4172 42.0498 40.6692C41.7978 40.9212 41.6562 41.263 41.6562 41.6194V42.9632C40.2307 42.9632 38.8636 43.5295 37.8556 44.5375C36.8475 45.5455 36.2812 46.9126 36.2812 48.3382C36.2812 49.7637 36.8475 51.1309 37.8556 52.1389C38.8636 53.1469 40.2307 53.7132 41.6562 53.7132H44.3438C45.0565 53.7132 45.7401 53.9963 46.2441 54.5003C46.7481 55.0043 47.0312 55.6879 47.0312 56.4007C47.0312 57.1134 46.7481 57.797 46.2441 58.301C45.7401 58.805 45.0565 59.0882 44.3438 59.0882Z" fill="black"/>
</g>
<defs>
<clipPath id="clip0_640_1199">
<rect width="86" height="86" fill="white"/>
</clipPath>
</defs>
</svg>
