<svg width="117" height="117" viewBox="0 0 117 117" fill="none" xmlns="http://www.w3.org/2000/svg">
<path d="M48.7744 15.7215C45.5349 11.0537 40.7304 7.70098 35.2316 6.27095C29.7328 4.84092 23.9036 5.42821 18.8006 7.92639C13.6975 10.4246 9.65835 14.6683 7.41511 19.8884C5.17187 25.1086 4.87303 30.9596 6.57275 36.3811C8.27247 41.8027 11.8583 46.4358 16.6802 49.4409C21.5022 52.446 27.2412 53.6242 32.8571 52.7618C38.473 51.8995 43.5941 49.0537 47.2922 44.7403C50.9904 40.4269 53.0209 34.9313 53.0156 29.2496C53.0312 24.4107 51.5498 19.6854 48.7744 15.7215ZM31.0781 38.3902V40.2183C31.0781 40.7032 30.8855 41.1682 30.5427 41.511C30.1998 41.8538 29.7348 42.0464 29.25 42.0464C28.7651 42.0464 28.3002 41.8538 27.9573 41.511C27.6145 41.1682 27.4219 40.7032 27.4219 40.2183V38.3902H25.5937C25.1089 38.3902 24.6439 38.1976 24.3011 37.8548C23.9582 37.5119 23.7656 37.0469 23.7656 36.5621C23.7656 36.0772 23.9582 35.6122 24.3011 35.2694C24.6439 34.9266 25.1089 34.7339 25.5937 34.7339H31.0781C31.563 34.7339 32.028 34.5413 32.3708 34.1985C32.7136 33.8557 32.9062 33.3907 32.9062 32.9058C32.9062 32.421 32.7136 31.956 32.3708 31.6131C32.028 31.2703 31.563 31.0777 31.0781 31.0777H27.4219C25.9673 31.0777 24.5724 30.4999 23.5438 29.4714C22.5153 28.4428 21.9375 27.0479 21.9375 25.5933C21.9375 24.1388 22.5153 22.7438 23.5438 21.7153C24.5724 20.6868 25.9673 20.1089 27.4219 20.1089V18.2808C27.4219 17.796 27.6145 17.331 27.9573 16.9881C28.3002 16.6453 28.7651 16.4527 29.25 16.4527C29.7348 16.4527 30.1998 16.6453 30.5427 16.9881C30.8855 17.331 31.0781 17.796 31.0781 18.2808V20.1089H32.9062C33.3911 20.1089 33.8561 20.3016 34.1989 20.6444C34.5418 20.9872 34.7344 21.4522 34.7344 21.9371C34.7344 22.4219 34.5418 22.8869 34.1989 23.2298C33.8561 23.5726 33.3911 23.7652 32.9062 23.7652H27.4219C26.937 23.7652 26.472 23.9578 26.1292 24.3006C25.7864 24.6435 25.5937 25.1085 25.5937 25.5933C25.5937 26.0782 25.7864 26.5432 26.1292 26.886C26.472 27.2288 26.937 27.4214 27.4219 27.4214H31.0781C32.5327 27.4214 33.9276 27.9993 34.9562 29.0278C35.9847 30.0563 36.5625 31.4513 36.5625 32.9058C36.5625 34.3604 35.9847 35.7553 34.9562 36.7839C33.9276 37.8124 32.5327 38.3902 31.0781 38.3902Z" fill="black"/>
<path d="M63.9844 100.547H45.7031V107.859H63.9844V100.547Z" fill="black"/>
<path d="M85.9219 89.5781H67.6406V96.8906H85.9219V89.5781Z" fill="black"/>
<path d="M85.9219 100.547H67.6406V107.859H85.9219V100.547Z" fill="black"/>
<path d="M107.859 89.5781H89.5781V96.8906H107.859V89.5781Z" fill="black"/>
<path d="M107.859 78.6094H89.5781V85.9219H107.859V78.6094Z" fill="black"/>
<path d="M107.859 100.547H89.5781V107.859H107.859V100.547Z" fill="black"/>
<path d="M100.437 19.5423L106.452 26.8548C106.632 27.0446 106.851 27.1934 107.094 27.2911C107.337 27.3889 107.598 27.4334 107.859 27.4215C108.287 27.4224 108.7 27.2736 109.029 27.0011C109.214 26.8476 109.368 26.6591 109.48 26.4464C109.592 26.2337 109.661 26.001 109.683 25.7616C109.705 25.5221 109.68 25.2807 109.608 25.051C109.537 24.8214 109.421 24.6081 109.267 24.4234L100.126 13.4547C99.9549 13.2477 99.7398 13.081 99.4965 12.9666C99.2532 12.8523 98.9876 12.793 98.7188 12.793C98.4499 12.793 98.1844 12.8523 97.941 12.9666C97.6977 13.081 97.4826 13.2477 97.3111 13.4547L88.1705 24.4234C88.0168 24.6083 87.9011 24.8216 87.8299 25.0512C87.7587 25.2808 87.7334 25.5221 87.7555 25.7615C87.7775 26.0008 87.8465 26.2335 87.9585 26.4462C88.0705 26.6589 88.2233 26.8474 88.4081 27.0011C88.593 27.1547 88.8063 27.2705 89.0359 27.3417C89.2655 27.4129 89.5068 27.4382 89.7462 27.4161C89.9855 27.394 90.2182 27.325 90.4309 27.213C90.6436 27.1011 90.8321 26.9483 90.9858 26.7634L96.7627 19.8348C94.2947 53.5455 55.118 80.4372 7.3125 80.4372C6.82765 80.4372 6.36266 80.6298 6.01982 80.9726C5.67698 81.3155 5.48438 81.7804 5.48438 82.2653C5.48438 82.7501 5.67698 83.2151 6.01982 83.558C6.36266 83.9008 6.82765 84.0934 7.3125 84.0934C57.2934 84.0934 98.2069 55.4101 100.437 19.5423Z" fill="black"/>
</svg>
