<svg width="284" height="65" viewBox="0 0 284 65" fill="none" xmlns="http://www.w3.org/2000/svg">
<path d="M34.5317 1.75137e-05C26.2937 -0.000103244 18.3849 3.33169 12.5073 9.27843C12.4199 9.3632 12.317 9.42676 12.2296 9.51684C12.1421 9.60693 12.0804 9.71291 11.993 9.80831C6.21931 15.8583 2.97563 23.9976 2.95711 32.4819C2.93855 40.966 6.14659 49.1204 11.8937 55.1969C17.6409 61.2739 25.4699 64.7896 33.703 64.9908C41.9359 65.1925 49.9183 62.0632 55.9389 56.2745C56.2522 56.0241 56.5492 55.7532 56.8286 55.4638C56.9161 55.3789 56.9778 55.273 57.0603 55.1776C61.4054 50.6114 64.3448 44.8242 65.5092 38.5432C66.6731 32.262 66.0105 25.7664 63.6036 19.8719C61.1972 13.9774 57.154 8.9467 51.9817 5.41131C46.8093 1.87591 40.7387 -0.00662418 34.5317 1.75137e-05ZM34.5317 2.56999C41.7995 2.57325 48.7997 5.39585 54.1385 10.4759L45.8474 19.0284C37.4274 10.7038 27.9532 6.09375 20.6443 6.21564C24.9014 3.81448 29.6783 2.56045 34.5317 2.56999ZM55.229 53.4395L54.8742 53.805C49.2162 59.2101 35.8432 54.8278 24.9802 44.1347L28.0663 40.9551C30.0794 42.5725 32.5967 43.3755 35.1446 43.2145C37.6923 43.0531 40.0952 41.9377 41.9011 40.0788C43.7066 38.22 44.7905 35.7452 44.9491 33.1207C45.1074 30.4959 44.3294 27.9019 42.7611 25.8269L45.8474 22.6476C56.237 33.8493 60.4908 47.6532 55.2446 53.45L55.229 53.4395ZM13.8292 11.5251L14.1429 11.1966C15.7837 9.60693 18.088 8.82269 20.8294 8.82269C27.4182 8.82269 36.3988 13.242 44.0985 20.8247L41.0126 24.0041C39.1684 22.5001 36.8835 21.6856 34.5317 21.6938C32.5618 21.6899 30.6308 22.2585 28.9604 23.3343C27.2901 24.4101 25.9481 25.9494 25.0888 27.7756C24.2293 29.6016 23.8873 31.6405 24.1019 33.6578C24.3165 35.6752 25.0791 37.5892 26.3021 39.18L23.216 42.3595C12.8519 31.1364 8.59828 17.3169 13.8446 11.5358L13.8292 11.5251ZM42.5196 32.4823C42.5208 34.6669 41.6804 36.7624 40.1823 38.3085C38.6843 39.8546 36.6522 40.7245 34.5317 40.7273C32.4176 40.708 30.3955 39.8341 28.9005 38.294C27.4057 36.754 26.5575 34.6709 26.5387 32.4929C26.5414 30.3099 27.3844 28.217 28.8828 26.6734C30.3812 25.1297 32.4126 24.2612 34.5317 24.2584C36.2164 24.261 37.8564 24.8179 39.2122 25.8481C39.8877 26.3543 40.4832 26.9657 40.9763 27.6603C41.9824 29.059 42.5282 30.7522 42.5349 32.4929L42.5196 32.4823ZM9.02002 18.1753C8.90175 25.6944 13.3765 35.455 21.4569 44.1399L13.1605 52.6872C9.05636 48.1032 6.45171 42.3084 5.71348 36.1188C4.9753 29.9291 6.14077 23.6569 9.04577 18.1859L9.02002 18.1753ZM34.5317 62.4159C27.2626 62.4142 20.2613 59.5893 14.9247 54.5046L23.216 45.9682C31.5279 54.1866 40.8735 58.7806 48.1311 58.7806H48.4191C44.1595 61.1741 39.3837 62.4243 34.5317 62.4159ZM47.6013 20.8406L55.8975 12.2935C60.0059 16.8744 62.6155 22.6678 63.3583 28.8575C64.101 35.0472 62.9398 41.321 60.0383 46.7946C60.1719 39.2754 55.697 29.5043 47.6166 20.8406H47.6013Z" fill="#3386FF"/>
<path d="M106.712 38.3348C106.712 38.917 106.655 39.5529 106.603 40.1351H82.1122C82.8901 46.0641 87.2976 49.7025 93.2146 49.7025C97.6221 49.7025 100.692 47.5467 102.196 44.7706L105.437 46.7433C103.093 50.6889 98.794 53.4162 93.1575 53.4162C84.3421 53.4162 78.3164 46.9751 78.3164 38.216C78.3164 29.6944 84.233 23.0215 92.8825 23.0215C101.418 23.0053 106.712 30.3898 106.712 38.3348ZM82.107 36.4214H102.917C102.139 30.0395 97.6741 26.7191 92.8774 26.7191C87.0073 26.7353 82.859 30.7347 82.1122 36.4214H82.107Z" fill="#2B364E"/>
<path d="M118.494 27.429V45.0007C118.494 49.9919 121.087 49.5878 126.527 49.3507V52.7193C118.997 53.8781 114.813 51.9647 114.813 45.0007V27.429H108.953V23.7152H114.813V16.7565L118.494 15.5977V23.7152H126.527V27.429H118.494Z" fill="#2B364E"/>
<path d="M156.657 34.912V52.6992H152.976V34.912C152.976 29.7483 150.243 26.7352 145.384 26.7352C140.525 26.7352 136.346 29.7483 136.346 37.5153V52.7155H132.664V12.1172H136.346V28.2444C138.524 24.5899 141.76 23.0214 145.721 23.0214C152.53 23.0052 156.657 27.6623 156.657 34.912Z" fill="#2B364E"/>
<path d="M191.479 23.7154V52.7196H187.797V47.033C186.613 49.0226 184.95 50.6571 182.974 51.7762C180.997 52.8952 178.774 53.4598 176.524 53.4148C172.694 53.3399 169.045 51.7057 166.362 48.8641C163.679 46.0221 162.176 42.1994 162.176 38.2175C162.176 34.2358 163.679 30.413 166.362 27.5711C169.045 24.7291 172.694 23.095 176.524 23.0201C178.774 22.975 180.997 23.5398 182.974 24.6588C184.95 25.7778 186.613 27.4125 187.797 29.402V23.7154H191.479ZM187.797 38.2146C187.786 35.9573 187.131 33.7539 185.917 31.8825C184.702 30.0112 182.981 28.5557 180.971 27.6999C178.962 26.8441 176.753 26.6263 174.624 27.0739C172.496 27.5215 170.542 28.6145 169.011 30.2149C167.479 31.8153 166.437 33.8515 166.018 36.0666C165.598 38.2813 165.819 40.5759 166.653 42.6605C167.487 44.745 168.896 46.5265 170.702 47.7795C172.509 49.0324 174.632 49.7011 176.804 49.7011C178.256 49.7158 179.697 49.4279 181.04 48.8551C182.384 48.2823 183.604 47.4359 184.629 46.3656C185.653 45.2953 186.461 44.0227 187.005 42.6228C187.549 41.2233 187.819 39.7243 187.797 38.2146Z" fill="#2B364E"/>
<path d="M223.282 34.9122V52.6993H219.6V34.9122C219.6 29.7484 216.868 26.7353 212.014 26.7353C207.161 26.7353 202.976 29.7484 202.976 37.5155V52.7157H199.289V23.7168H202.976V28.2445C205.149 24.59 208.384 23.0215 212.346 23.0215C219.154 23.0054 223.282 27.6624 223.282 34.9122Z" fill="#2B364E"/>
<path d="M229.867 50.1072C229.867 49.4758 230.047 48.8588 230.385 48.3343C230.722 47.8094 231.202 47.4003 231.763 47.1591C232.324 46.9176 232.941 46.8541 233.536 46.9773C234.132 47.1006 234.679 47.4044 235.108 47.8507C235.537 48.297 235.83 48.8653 235.948 49.4844C236.067 50.1035 236.006 50.7452 235.773 51.3282C235.541 51.9113 235.148 52.4096 234.643 52.7601C234.138 53.111 233.545 53.2981 232.937 53.2981C232.533 53.3038 232.131 53.2252 231.756 53.0668C231.381 52.9087 231.041 52.6737 230.754 52.3764C230.468 52.0788 230.242 51.7246 230.09 51.3352C229.938 50.9454 229.862 50.5277 229.867 50.1072Z" fill="#2B364E"/>
<path d="M268.709 23.7157V52.7199H265.022V47.0334C263.841 49.0245 262.18 50.6607 260.204 51.7802C258.227 52.8996 256.004 53.463 253.754 53.4151C249.924 53.3402 246.276 51.7061 243.592 48.8644C240.909 46.0224 239.406 42.1997 239.406 38.2178C239.406 34.2361 240.909 30.4133 243.592 27.5714C246.276 24.7295 249.924 23.0954 253.754 23.0204C256.004 22.9725 258.227 23.5361 260.204 24.6554C262.18 25.7748 263.841 27.411 265.022 29.4023V23.7157H268.709ZM265.022 38.2149C265.011 35.9576 264.357 33.7537 263.141 31.8823C261.927 30.0108 260.205 28.5554 258.195 27.6998C256.185 26.8441 253.977 26.6266 251.848 27.0746C249.719 27.5226 247.765 28.6161 246.234 30.2171C244.702 31.8181 243.661 33.8548 243.242 36.0702C242.823 38.2853 243.045 40.5803 243.88 42.6645C244.714 44.749 246.124 46.5301 247.931 47.7822C249.739 49.0348 251.862 49.7026 254.034 49.7014C255.486 49.7153 256.926 49.427 258.269 48.8538C259.612 48.281 260.832 47.4342 261.856 46.3639C262.88 45.2936 263.687 44.0214 264.231 42.6219C264.775 41.2228 265.044 39.7242 265.022 38.2149Z" fill="#2B364E"/>
<path d="M275.684 14.7847C275.684 14.2333 275.841 13.6944 276.136 13.236C276.43 12.7776 276.85 12.4204 277.34 12.2096C277.83 11.9989 278.369 11.944 278.889 12.052C279.41 12.1599 279.887 12.4259 280.262 12.8162C280.637 13.2064 280.892 13.7035 280.995 14.2444C281.098 14.7853 281.044 15.3458 280.84 15.8549C280.636 16.364 280.292 16.7988 279.85 17.1044C279.408 17.4099 278.89 17.5725 278.359 17.5714C278.008 17.5714 277.659 17.4993 277.334 17.3592C277.009 17.2191 276.714 17.0137 276.466 16.7549C276.217 16.4961 276.02 16.1888 275.886 15.8507C275.752 15.5127 275.683 15.1504 275.684 14.7847ZM276.519 23.7162H280.2V52.7203H276.519V23.7162Z" fill="#2B364E"/>
</svg>
