<svg width="95" height="95" viewBox="0 0 95 95" fill="none" xmlns="http://www.w3.org/2000/svg">
<path d="M75.332 92.0312H86.4648V25.2344L75.332 36.3672V92.0312Z" stroke="black" stroke-width="3" stroke-miterlimit="10" stroke-linecap="round" stroke-linejoin="round"/>
<path d="M53.0664 92.0312H64.1992V41.9336L53.0664 53.0664V92.0312Z" stroke="black" stroke-width="3" stroke-miterlimit="10" stroke-linecap="round" stroke-linejoin="round"/>
<path d="M30.8008 92.0312H41.9336V61.416L30.8008 72.5488V92.0312Z" stroke="black" stroke-width="3" stroke-miterlimit="10" stroke-linecap="round" stroke-linejoin="round"/>
<path d="M8.53516 92.0312H19.668V75.332L8.53516 86.4648V92.0312Z" stroke="black" stroke-width="3" stroke-miterlimit="10" stroke-linecap="round" stroke-linejoin="round"/>
<path d="M92.0312 92.0312H2.96875" stroke="black" stroke-width="3" stroke-miterlimit="10" stroke-linecap="round" stroke-linejoin="round"/>
<path d="M28.0176 53.252C41.8517 53.252 53.0664 42.0372 53.0664 28.2031C53.0664 14.369 41.8517 3.1543 28.0176 3.1543C14.1835 3.1543 2.96875 14.369 2.96875 28.2031C2.96875 42.0372 14.1835 53.252 28.0176 53.252Z" stroke="black" stroke-width="3" stroke-miterlimit="10" stroke-linecap="round" stroke-linejoin="round"/>
<path d="M33.5859 17.0703H28.0195C24.9452 17.0703 22.4531 19.5624 22.4531 22.6367C22.4531 25.711 24.9452 28.2031 28.0195 28.2031C31.0939 28.2031 33.5859 30.6952 33.5859 33.7695C33.5859 36.8439 31.0939 39.3359 28.0195 39.3359H22.4531" stroke="black" stroke-width="3" stroke-miterlimit="10" stroke-linecap="round" stroke-linejoin="round"/>
<path d="M28.0156 44.9023V39.3359" stroke="black" stroke-width="3" stroke-miterlimit="10" stroke-linecap="round" stroke-linejoin="round"/>
<path d="M28.0156 17.0703V11.5039" stroke="black" stroke-width="3" stroke-miterlimit="10" stroke-linecap="round" stroke-linejoin="round"/>
<path d="M52.8477 31.5151L66.9808 28.0176L89.2464 2.96875" stroke="black" stroke-width="3" stroke-miterlimit="10" stroke-linecap="round" stroke-linejoin="round"/>
<path d="M17.5806 50.9785L2.96875 75.3315" stroke="black" stroke-width="3" stroke-miterlimit="10" stroke-linecap="round" stroke-linejoin="round"/>
<path d="M78.1172 2.96875H89.25V14.1016" stroke="black" stroke-width="3" stroke-miterlimit="10" stroke-linecap="round" stroke-linejoin="round"/>
</svg>
