<svg xmlns="http://www.w3.org/2000/svg" width="1200" height="800" viewBox="0 0 1200 800" version="1.1"><path d="M 231.500 54.394 C 200.440 59.507, 174.747 72.114, 152.533 93.140 C 129 115.416, 114.224 142.912, 108.273 175.500 C 106.066 187.587, 106.066 212.413, 108.273 224.500 C 115.384 263.437, 135.063 295.094, 166.958 318.905 C 182.802 330.732, 202.539 339.526, 223.817 344.239 C 231.767 346, 236.901 346.395, 252.500 346.442 C 264.706 346.479, 274.182 346.003, 279 345.109 L 286.500 343.719 276 340.333 C 224.553 323.745, 187.620 282.803, 175.806 229.266 C 172.685 215.119, 172.685 184.881, 175.806 170.734 C 187.480 117.830, 223.570 77.249, 273.912 60.420 L 286.324 56.271 279.912 55.037 C 270.380 53.204, 241.094 52.815, 231.500 54.394 M 329.403 91.250 L 325.367 103.500 311.961 104 L 298.555 104.500 308.777 111.844 C 314.398 115.883, 319.213 119.535, 319.476 119.960 C 319.738 120.385, 318.160 126.070, 315.969 132.593 C 313.777 139.116, 312.100 144.781, 312.242 145.181 C 312.384 145.581, 317.109 142.554, 322.742 138.454 C 328.376 134.354, 333.551 131.019, 334.242 131.042 C 334.934 131.064, 339.999 134.403, 345.498 138.460 C 350.997 142.517, 355.657 145.677, 355.852 145.481 C 356.126 145.207, 350.783 128.166, 348.289 121.361 C 348.059 120.735, 352.728 116.685, 358.665 112.361 L 369.458 104.500 356.045 104 L 342.633 103.500 338.597 91.250 C 336.376 84.513, 334.308 79, 334 79 C 333.692 79, 331.624 84.513, 329.403 91.250 M 249.349 148.750 L 245.366 161.500 231.579 162 L 217.791 162.500 228.717 170.435 L 239.644 178.371 235.822 190.435 C 233.720 197.071, 232.117 202.850, 232.260 203.279 C 232.402 203.707, 237.129 200.669, 242.764 196.529 C 248.399 192.388, 253.304 189, 253.664 189 C 254.024 189, 259.016 192.406, 264.757 196.570 C 270.497 200.733, 275.326 203.995, 275.488 203.820 C 275.649 203.644, 274.040 198.100, 271.910 191.500 C 269.781 184.900, 268.030 179.202, 268.019 178.838 C 268.009 178.473, 272.837 174.648, 278.750 170.338 L 289.500 162.500 275.898 162.223 L 262.296 161.945 258.105 148.973 C 255.799 141.838, 253.782 136, 253.622 136 C 253.462 136, 251.539 141.738, 249.349 148.750 M 410.024 148.723 L 405.704 161.945 392.102 162.223 L 378.500 162.500 389.250 170.338 C 395.163 174.648, 399.991 178.473, 399.981 178.838 C 399.970 179.202, 398.219 184.900, 396.090 191.500 C 393.960 198.100, 392.368 203.661, 392.550 203.857 C 392.732 204.054, 397.579 200.792, 403.320 196.607 C 409.062 192.423, 414.042 189, 414.387 189 C 414.733 189, 419.624 192.354, 425.258 196.454 C 430.891 200.554, 435.612 203.592, 435.750 203.204 C 435.887 202.817, 434.280 197.071, 432.178 190.435 L 428.356 178.371 439.283 170.435 L 450.209 162.500 436.439 162 L 422.668 161.500 418.506 148.500 L 414.344 135.500 410.024 148.723 M 280.021 243.437 L 275.834 256 262.417 256 C 255.038 256, 249.010 256.337, 249.023 256.750 C 249.035 257.163, 253.760 260.861, 259.523 264.969 C 265.285 269.077, 270 272.924, 270 273.516 C 270 274.109, 268.204 279.939, 266.009 286.473 C 263.814 293.006, 262.132 298.465, 262.271 298.604 C 262.410 298.743, 267.425 295.308, 273.416 290.970 L 284.309 283.084 287.404 285.238 C 289.107 286.423, 293.650 289.691, 297.500 292.500 C 301.350 295.309, 305.035 297.930, 305.689 298.325 C 306.343 298.719, 305.105 293.767, 302.939 287.318 C 300.772 280.870, 299 274.873, 299 273.993 C 299 273.113, 303.837 268.817, 309.750 264.446 L 320.500 256.500 306.534 256 L 292.569 255.500 288.774 243.573 C 286.686 237.013, 284.805 231.472, 284.593 231.260 C 284.381 231.048, 282.324 236.528, 280.021 243.437 M 379.322 243.250 L 375.444 255.500 361.472 256 L 347.500 256.500 358.250 264.446 C 364.163 268.817, 368.987 273.092, 368.970 273.946 C 368.954 274.801, 367.201 280.785, 365.075 287.245 C 362.948 293.704, 361.724 298.685, 362.354 298.313 C 362.984 297.941, 366.650 295.339, 370.500 292.531 C 374.350 289.723, 378.909 286.436, 380.632 285.228 L 383.764 283.032 394.632 290.922 C 400.609 295.262, 405.608 298.709, 405.741 298.582 C 405.873 298.455, 404.186 293.006, 401.991 286.473 C 399.796 279.939, 398 274.113, 398 273.526 C 398 272.939, 402.721 269.093, 408.491 264.979 C 414.260 260.866, 418.985 257.163, 418.991 256.750 C 418.996 256.337, 412.962 256, 405.583 256 L 392.166 256 388 243.500 C 385.709 236.625, 383.692 231, 383.517 231 C 383.343 231, 381.455 236.512, 379.322 243.250 M -0 600.002 L 0 800.002 600.250 799.751 L 1200.500 799.500 1200.752 599.500 L 1201.005 399.500 600.502 399.752 L -0 400.003 -0 600.002 M 0.490 600 C 0.490 710.275, 0.607 755.388, 0.750 700.250 C 0.893 645.112, 0.893 554.888, 0.750 499.750 C 0.607 444.612, 0.490 489.725, 0.490 600" stroke="none" fill="#fbfbfb" fill-rule="evenodd"/><path d="M 0 200.001 L 0 400.002 600.250 399.751 L 1200.500 399.500 1200.752 199.750 L 1201.005 0 600.502 0 L 0 0 0 200.001 M 0.490 200.500 C 0.490 310.500, 0.607 355.352, 0.750 300.170 C 0.893 244.989, 0.893 154.989, 0.750 100.170 C 0.607 45.352, 0.490 90.500, 0.490 200.500 M 231.500 54.394 C 200.440 59.507, 174.747 72.114, 152.533 93.140 C 129 115.416, 114.224 142.912, 108.273 175.500 C 106.066 187.587, 106.066 212.413, 108.273 224.500 C 115.384 263.437, 135.063 295.094, 166.958 318.905 C 182.802 330.732, 202.539 339.526, 223.817 344.239 C 231.767 346, 236.901 346.395, 252.500 346.442 C 264.706 346.479, 274.182 346.003, 279 345.109 L 286.500 343.719 276 340.333 C 224.553 323.745, 187.620 282.803, 175.806 229.266 C 172.685 215.119, 172.685 184.881, 175.806 170.734 C 187.480 117.830, 223.570 77.249, 273.912 60.420 L 286.324 56.271 279.912 55.037 C 270.380 53.204, 241.094 52.815, 231.500 54.394 M 329.403 91.250 L 325.367 103.500 311.961 104 L 298.555 104.500 308.777 111.844 C 314.398 115.883, 319.213 119.535, 319.476 119.960 C 319.738 120.385, 318.160 126.070, 315.969 132.593 C 313.777 139.116, 312.100 144.781, 312.242 145.181 C 312.384 145.581, 317.109 142.554, 322.742 138.454 C 328.376 134.354, 333.551 131.019, 334.242 131.042 C 334.934 131.064, 339.999 134.403, 345.498 138.460 C 350.997 142.517, 355.657 145.677, 355.852 145.481 C 356.126 145.207, 350.783 128.166, 348.289 121.361 C 348.059 120.735, 352.728 116.685, 358.665 112.361 L 369.458 104.500 356.045 104 L 342.633 103.500 338.597 91.250 C 336.376 84.513, 334.308 79, 334 79 C 333.692 79, 331.624 84.513, 329.403 91.250 M 249.349 148.750 L 245.366 161.500 231.579 162 L 217.791 162.500 228.717 170.435 L 239.644 178.371 235.822 190.435 C 233.720 197.071, 232.117 202.850, 232.260 203.279 C 232.402 203.707, 237.129 200.669, 242.764 196.529 C 248.399 192.388, 253.304 189, 253.664 189 C 254.024 189, 259.016 192.406, 264.757 196.570 C 270.497 200.733, 275.326 203.995, 275.488 203.820 C 275.649 203.644, 274.040 198.100, 271.910 191.500 C 269.781 184.900, 268.030 179.202, 268.019 178.838 C 268.009 178.473, 272.837 174.648, 278.750 170.338 L 289.500 162.500 275.898 162.223 L 262.296 161.945 258.105 148.973 C 255.799 141.838, 253.782 136, 253.622 136 C 253.462 136, 251.539 141.738, 249.349 148.750 M 410.024 148.723 L 405.704 161.945 392.102 162.223 L 378.500 162.500 389.250 170.338 C 395.163 174.648, 399.991 178.473, 399.981 178.838 C 399.970 179.202, 398.219 184.900, 396.090 191.500 C 393.960 198.100, 392.368 203.661, 392.550 203.857 C 392.732 204.054, 397.579 200.792, 403.320 196.607 C 409.062 192.423, 414.042 189, 414.387 189 C 414.733 189, 419.624 192.354, 425.258 196.454 C 430.891 200.554, 435.612 203.592, 435.750 203.204 C 435.887 202.817, 434.280 197.071, 432.178 190.435 L 428.356 178.371 439.283 170.435 L 450.209 162.500 436.439 162 L 422.668 161.500 418.506 148.500 L 414.344 135.500 410.024 148.723 M 280.021 243.437 L 275.834 256 262.417 256 C 255.038 256, 249.010 256.337, 249.023 256.750 C 249.035 257.163, 253.760 260.861, 259.523 264.969 C 265.285 269.077, 270 272.924, 270 273.516 C 270 274.109, 268.204 279.939, 266.009 286.473 C 263.814 293.006, 262.132 298.465, 262.271 298.604 C 262.410 298.743, 267.425 295.308, 273.416 290.970 L 284.309 283.084 287.404 285.238 C 289.107 286.423, 293.650 289.691, 297.500 292.500 C 301.350 295.309, 305.035 297.930, 305.689 298.325 C 306.343 298.719, 305.105 293.767, 302.939 287.318 C 300.772 280.870, 299 274.873, 299 273.993 C 299 273.113, 303.837 268.817, 309.750 264.446 L 320.500 256.500 306.534 256 L 292.569 255.500 288.774 243.573 C 286.686 237.013, 284.805 231.472, 284.593 231.260 C 284.381 231.048, 282.324 236.528, 280.021 243.437 M 379.322 243.250 L 375.444 255.500 361.472 256 L 347.500 256.500 358.250 264.446 C 364.163 268.817, 368.987 273.092, 368.970 273.946 C 368.954 274.801, 367.201 280.785, 365.075 287.245 C 362.948 293.704, 361.724 298.685, 362.354 298.313 C 362.984 297.941, 366.650 295.339, 370.500 292.531 C 374.350 289.723, 378.909 286.436, 380.632 285.228 L 383.764 283.032 394.632 290.922 C 400.609 295.262, 405.608 298.709, 405.741 298.582 C 405.873 298.455, 404.186 293.006, 401.991 286.473 C 399.796 279.939, 398 274.113, 398 273.526 C 398 272.939, 402.721 269.093, 408.491 264.979 C 414.260 260.866, 418.985 257.163, 418.991 256.750 C 418.996 256.337, 412.962 256, 405.583 256 L 392.166 256 388 243.500 C 385.709 236.625, 383.692 231, 383.517 231 C 383.343 231, 381.455 236.512, 379.322 243.250" stroke="none" fill="#ec2434" fill-rule="evenodd"/></svg>