<svg width="95" height="95" viewBox="0 0 95 95" fill="none" xmlns="http://www.w3.org/2000/svg">
<g clip-path="url(#clip0_738_3100)">
<path d="M67.7709 34.9248H79.3007C80.1767 34.9251 81.0442 34.7527 81.8536 34.4175C82.663 34.0824 83.3984 33.5911 84.0179 32.9716C84.6373 32.3522 85.1287 31.6168 85.4638 30.8074C85.799 29.998 85.9714 29.1305 85.9712 28.2545C85.9728 26.7472 85.564 25.2679 84.7885 23.9754C84.0131 22.6829 82.9003 21.626 81.5696 20.9181L78.3713 19.2135C78.3721 19.1773 78.3749 19.1413 78.3749 19.1051V17.6121C79.3744 16.8623 80.1856 15.8901 80.7443 14.7724C81.3031 13.6548 81.594 12.4225 81.5941 11.173V8.8612C81.5931 6.72464 80.7436 4.67594 79.2325 3.16553C77.7214 1.65512 75.6722 0.806641 73.5357 0.806641C71.3992 0.806641 69.35 1.65512 67.8389 3.16553C66.3278 4.67594 65.4783 6.72464 65.4773 8.8612V11.173C65.4777 12.4472 65.7805 13.7032 66.3608 14.8376C66.9411 15.972 67.7824 16.9524 68.8155 17.6983V19.1051C68.8155 19.121 68.8168 19.1367 68.8169 19.1525L65.5021 20.9181C64.1725 21.6274 63.0607 22.6846 62.2854 23.9768C61.5101 25.269 61.1005 26.7475 61.1004 28.2545C61.1024 30.023 61.8059 31.7184 63.0564 32.9689C64.3069 34.2194 66.0024 34.9228 67.7709 34.9248ZM68.2605 11.173V8.8612C68.2603 7.49324 68.7916 6.17873 69.7422 5.19506C70.6929 4.2114 71.9885 3.63555 73.3556 3.58903C74.7228 3.54251 76.0546 4.02897 77.0699 4.94574C78.0852 5.86251 78.7046 7.13787 78.7974 8.50268C77.4607 8.86812 76.0527 8.88521 74.7075 8.55235C73.9524 8.3591 73.2302 8.05439 72.5649 7.64826C72.4088 7.55332 72.2355 7.49006 72.0549 7.46209C71.8743 7.43413 71.69 7.44201 71.5124 7.48529C71.3349 7.52856 71.1676 7.60639 71.0201 7.71431C70.8726 7.82224 70.7479 7.95815 70.6529 8.1143C70.558 8.27044 70.4947 8.44376 70.4668 8.62435C70.4388 8.80494 70.4467 8.98927 70.49 9.16682C70.5332 9.34437 70.6111 9.51165 70.719 9.65912C70.8269 9.80659 70.9628 9.93136 71.119 10.0263C72.0204 10.576 72.9986 10.9883 74.0216 11.2497C74.8732 11.4664 75.7486 11.5757 76.6274 11.5752C77.3592 11.5738 78.089 11.5002 78.8063 11.3554C78.7587 12.7378 78.1699 14.0462 77.1668 14.9986C76.1638 15.9511 74.8267 16.4714 73.4437 16.4475C72.0607 16.4236 70.7424 15.8573 69.7729 14.8707C68.8034 13.8842 68.2603 12.5562 68.2605 11.173ZM75.5917 18.9647V19.1051C75.5917 19.6346 75.3813 20.1425 75.0069 20.5169C74.6325 20.8913 74.1247 21.1016 73.5952 21.1016C73.0657 21.1016 72.5579 20.8913 72.1835 20.5169C71.809 20.1425 71.5987 19.6346 71.5987 19.1051V18.9945C72.9111 19.3202 74.2843 19.3099 75.5917 18.9647ZM64.6728 25.4073C65.1878 24.5482 65.9269 23.8455 66.8108 23.3744L69.681 21.8457C70.1184 22.4716 70.6996 22.9834 71.3758 23.3382C72.0519 23.6929 72.8033 23.8804 73.5669 23.8847C74.3305 23.889 75.0839 23.7102 75.7641 23.3631C76.4442 23.016 77.0312 22.5109 77.4757 21.89L80.2601 23.3741C81.1453 23.845 81.8856 24.5481 82.4014 25.4079C82.9172 26.2678 83.1891 27.2518 83.1879 28.2545C83.1881 28.765 83.0877 29.2706 82.8925 29.7423C82.6972 30.214 82.4109 30.6426 82.0499 31.0036C81.6889 31.3646 81.2602 31.6509 80.7885 31.8462C80.3168 32.0414 79.8112 32.1418 79.3007 32.1416H67.7709C66.7403 32.1405 65.7522 31.7306 65.0235 31.0018C64.2948 30.2731 63.8848 29.2851 63.8836 28.2545C63.8839 27.2515 64.1566 26.2673 64.6728 25.4073ZM9.68221 62.5613C9.70366 62.573 9.72433 62.5857 9.74662 62.5964C9.76065 62.6032 9.77511 62.6078 9.78926 62.614C9.81134 62.6238 9.83342 62.633 9.85577 62.6416C9.88805 62.6539 9.92051 62.6646 9.95318 62.6744C9.97512 62.681 9.99692 62.6878 10.019 62.6933C10.0557 62.7023 10.0925 62.7089 10.1294 62.7149C10.1475 62.7178 10.1654 62.7218 10.1835 62.724C10.2387 62.7309 10.2942 62.7345 10.3498 62.7348C10.357 62.7348 10.3639 62.7334 10.3711 62.7333C10.4259 62.7327 10.4807 62.7289 10.5351 62.7219C10.5578 62.7188 10.5798 62.7129 10.6023 62.7087C10.6409 62.7016 10.6796 62.6948 10.7175 62.6844C10.7416 62.6778 10.7648 62.6687 10.7885 62.6608C10.8238 62.6491 10.859 62.6376 10.8933 62.6231C10.9171 62.613 10.9398 62.6009 10.9631 62.5894C10.9956 62.5735 11.0281 62.5575 11.0594 62.539C11.0826 62.5253 11.1046 62.5098 11.127 62.4948C11.1563 62.4751 11.1853 62.4552 11.2131 62.4332C11.2354 62.4155 11.2565 62.3965 11.2778 62.3775C11.3032 62.3547 11.3282 62.3315 11.352 62.3067C11.3729 62.285 11.3927 62.2623 11.4122 62.2391C11.4338 62.2134 11.4547 62.1872 11.4747 62.1596C11.4929 62.1345 11.5102 62.1086 11.5269 62.082C11.536 62.0675 11.5467 62.0546 11.5553 62.0397C11.5681 62.0176 11.5785 61.9948 11.5899 61.9723C11.5944 61.9635 11.6001 61.9559 11.6044 61.947L14.2875 56.3806C14.4474 56.0482 14.4689 55.6658 14.347 55.3175C14.2252 54.9693 13.97 54.6837 13.6377 54.5235C13.3053 54.3633 12.923 54.3417 12.5747 54.4633C12.2263 54.585 11.9406 54.8399 11.7802 55.1722L10.5613 57.701C9.63057 54.1501 9.22863 50.4814 9.36847 46.8133C9.74119 36.8784 14.0083 27.6389 21.3839 20.7966C28.7595 13.9543 38.2933 10.3927 48.2276 10.764C52.0473 10.9066 55.8227 11.6334 59.4224 12.919C59.77 13.0431 60.1527 13.024 60.4862 12.866C60.8197 12.708 61.0768 12.4239 61.2009 12.0763C61.325 11.7287 61.3059 11.346 61.1479 11.0125C60.9898 10.679 60.7058 10.4219 60.3582 10.2978C56.4911 8.91667 52.4354 8.13593 48.332 7.98275C37.6536 7.5814 27.4116 11.4083 19.491 18.7562C11.5704 26.104 6.98779 36.0311 6.58725 46.7089C6.43899 50.6065 6.86015 54.5049 7.8374 58.2809L5.69911 57.0438C5.54092 56.952 5.3662 56.8924 5.18494 56.8682C5.00367 56.844 4.81942 56.8558 4.64272 56.9029C4.46601 56.9499 4.30032 57.0314 4.15511 57.1425C4.0099 57.2537 3.88802 57.3924 3.79645 57.5507C3.70487 57.709 3.64538 57.8837 3.6214 58.065C3.59741 58.2463 3.60939 58.4305 3.65665 58.6072C3.70391 58.7839 3.78553 58.9495 3.89684 59.0946C4.00814 59.2397 4.14695 59.3614 4.30533 59.4528L9.65394 62.5473C9.66317 62.5526 9.6729 62.5561 9.68221 62.5613ZM66.6369 48.3028C66.6369 44.3835 65.4747 40.5522 63.2973 37.2935C61.1199 34.0347 58.025 31.4948 54.4041 29.995C50.7832 28.4952 46.7988 28.1027 42.9548 28.8673C39.1109 29.632 35.5799 31.5193 32.8086 34.2906C30.0373 37.062 28.1499 40.5929 27.3853 44.4368C26.6207 48.2808 27.0131 52.2652 28.513 55.8861C30.0128 59.507 32.5527 62.6019 35.8115 64.7793C39.0702 66.9568 42.9015 68.119 46.8208 68.119C52.0745 68.113 57.1114 66.0233 60.8264 62.3084C64.5413 58.5934 66.631 53.5565 66.6369 48.3028ZM29.7878 48.3028C29.7878 44.934 30.7867 41.6408 32.6583 38.8398C34.5299 36.0387 37.1902 33.8555 40.3025 32.5663C43.4149 31.2772 46.8397 30.9399 50.1437 31.5971C53.4478 32.2543 56.4828 33.8765 58.8649 36.2586C61.247 38.6407 62.8692 41.6757 63.5265 44.9798C64.1837 48.2839 63.8464 51.7086 62.5572 54.821C61.268 57.9334 59.0848 60.5936 56.2838 62.4652C53.4827 64.3368 50.1896 65.3358 46.8208 65.3358C42.3049 65.3307 37.9754 63.5345 34.7822 60.3413C31.5891 57.1481 29.7929 52.8186 29.7878 48.3028ZM90.2865 41.5591L85.3675 37.8192C85.3537 37.8087 85.3391 37.8001 85.325 37.7902C85.3104 37.7799 85.2969 37.7687 85.2818 37.7589C85.2767 37.7556 85.2713 37.7532 85.2662 37.75C85.244 37.7359 85.2213 37.7235 85.1986 37.7108C85.1805 37.7008 85.1625 37.6904 85.1441 37.6812C85.1207 37.6695 85.0968 37.6593 85.0729 37.6491C85.0542 37.641 85.0357 37.6326 85.0167 37.6254C84.9934 37.6166 84.9698 37.6093 84.9461 37.6018C84.926 37.5954 84.906 37.5886 84.8857 37.5831C84.863 37.5771 84.8403 37.5725 84.8175 37.5676C84.7958 37.563 84.7743 37.5579 84.7525 37.5544C84.7305 37.5507 84.7085 37.5486 84.6864 37.546C84.6637 37.5434 84.6412 37.5404 84.6185 37.5389C84.5966 37.5374 84.5748 37.5374 84.5529 37.537C84.5302 37.5366 84.5076 37.5358 84.4849 37.5365C84.4625 37.5371 84.4403 37.5392 84.418 37.541C84.396 37.5427 84.3741 37.544 84.3522 37.5468C84.3292 37.5497 84.3064 37.554 84.2836 37.558C84.2628 37.5617 84.242 37.5649 84.2215 37.5695C84.198 37.5748 84.1749 37.5815 84.1518 37.5879C84.1321 37.5934 84.1124 37.5984 84.0929 37.6048C84.0698 37.6123 84.0472 37.6213 84.0245 37.6301C84.0056 37.6374 83.9865 37.6442 83.9678 37.6524C83.9458 37.6619 83.9245 37.6729 83.903 37.6837C83.8841 37.6931 83.8652 37.7021 83.8467 37.7124C83.8268 37.7235 83.8075 37.736 83.7881 37.7481C83.7689 37.7601 83.7496 37.7718 83.7309 37.7848C83.7134 37.797 83.6965 37.8104 83.6795 37.8235C83.66 37.8384 83.6404 37.8531 83.6217 37.8692C83.6064 37.8823 83.5919 37.8964 83.5771 37.9103C83.5579 37.9282 83.5387 37.946 83.5205 37.9651C83.5066 37.9796 83.4936 37.9951 83.4803 38.0103C83.4628 38.0303 83.4453 38.0502 83.4288 38.0715C83.4252 38.0761 83.4211 38.0801 83.4175 38.0847C83.4071 38.0985 83.3985 38.1131 83.3886 38.1271C83.3783 38.1417 83.3671 38.1553 83.3573 38.1704L79.9983 43.357C79.899 43.5103 79.8308 43.6818 79.7978 43.8615C79.7647 44.0412 79.7673 44.2257 79.8055 44.4044C79.8437 44.5831 79.9168 44.7526 80.0205 44.9031C80.1241 45.0535 80.2565 45.1821 80.4099 45.2815C80.5632 45.3808 80.7347 45.449 80.9144 45.4821C81.0941 45.5151 81.2786 45.5125 81.4573 45.4743C81.636 45.4361 81.8055 45.363 81.9559 45.2594C82.1064 45.1557 82.235 45.0234 82.3344 44.87L83.8512 42.5278C84.1044 44.1447 84.2516 45.7764 84.2917 47.4125C84.53 57.3515 80.8385 66.8357 73.897 74.1181C66.9557 81.4005 57.6592 85.5423 47.7203 85.7805C44.3274 85.8623 40.939 85.4824 37.6484 84.6513C37.2906 84.5609 36.9115 84.6164 36.5946 84.8056C36.2776 84.9948 36.0488 85.3021 35.9585 85.6599C35.8681 86.0178 35.9237 86.3969 36.1128 86.7138C36.302 87.0307 36.6093 87.2595 36.9671 87.3499C40.189 88.1632 43.4992 88.5745 46.8221 88.5745C47.1437 88.5745 47.4653 88.5707 47.787 88.563C58.4692 88.3069 68.4574 83.8589 75.9117 76.0384C83.366 68.2179 87.3302 58.028 87.0742 47.3459C87.0321 45.647 86.8826 43.9526 86.6266 42.2726L88.6021 43.7746C88.7475 43.8853 88.9134 43.9663 89.0902 44.0129C89.2669 44.0595 89.4511 44.0708 89.6323 44.0462C89.8134 44.0216 89.9879 43.9615 90.1459 43.8695C90.3038 43.7774 90.442 43.6551 90.5527 43.5095C90.6633 43.364 90.7442 43.1981 90.7907 43.0213C90.8372 42.8445 90.8484 42.6603 90.8237 42.4792C90.799 42.2981 90.7388 42.1236 90.6466 41.9657C90.5545 41.8078 90.4321 41.6697 90.2865 41.5591ZM28.1395 81.7961L24.9412 80.0914C24.942 80.0553 24.9448 80.0192 24.9448 79.9831V78.4898C25.9443 77.74 26.7556 76.7678 27.3144 75.6501C27.8732 74.5325 28.1641 73.3001 28.1642 72.0506V69.7388C28.1642 68.6805 27.9558 67.6326 27.5508 66.655C27.1458 65.6773 26.5523 64.7889 25.804 64.0406C25.0557 63.2923 24.1673 62.6987 23.1896 62.2938C22.2119 61.8888 21.164 61.6804 20.1058 61.6804C19.0476 61.6804 17.9997 61.8888 17.022 62.2938C16.0443 62.6987 15.1559 63.2923 14.4076 64.0406C13.6593 64.7889 13.0658 65.6773 12.6608 66.655C12.2558 67.6326 12.0474 68.6805 12.0474 69.7388V72.0506C12.0478 73.3248 12.3505 74.5807 12.9308 75.715C13.5111 76.8494 14.3524 77.8299 15.3854 78.5758V79.9831C15.3854 79.9989 15.3867 80.0147 15.3869 80.0305L12.0712 81.7965C10.7418 82.5058 9.63018 83.563 8.85504 84.8551C8.07991 86.1471 7.67042 87.6256 7.67036 89.1323C7.67234 90.9008 8.37576 92.5963 9.62628 93.8469C10.8768 95.0974 12.5723 95.8008 14.3408 95.8028H25.8706C26.7467 95.803 27.6142 95.6306 28.4236 95.2955C29.233 94.9603 29.9684 94.469 30.5878 93.8495C31.2073 93.2301 31.6986 92.4947 32.0338 91.6853C32.3689 90.8759 32.5413 90.0084 32.5411 89.1323C32.543 87.625 32.1343 86.1456 31.3588 84.8531C30.5834 83.5606 29.4704 82.5037 28.1395 81.7961ZM14.8306 72.0506V69.7388C14.8304 68.3708 15.3617 67.0563 16.3123 66.0726C17.263 65.089 18.5586 64.5131 19.9258 64.4666C21.293 64.4201 22.6247 64.9066 23.64 65.8234C24.6553 66.7402 25.2747 68.0155 25.3675 69.3804C24.0308 69.7457 22.6229 69.7628 21.2777 69.43C20.5226 69.2368 19.8005 68.9321 19.1351 68.5259C18.979 68.431 18.8057 68.3677 18.6251 68.3397C18.4445 68.3118 18.2601 68.3196 18.0826 68.3629C17.905 68.4062 17.7377 68.484 17.5903 68.5919C17.4428 68.6998 17.318 68.8357 17.223 68.9919C17.1281 69.148 17.0648 69.3214 17.0368 69.5019C17.0089 69.6825 17.0167 69.8669 17.06 70.0444C17.1033 70.222 17.1811 70.3893 17.289 70.5368C17.3969 70.6842 17.5328 70.809 17.689 70.904C19.3475 71.9178 21.2538 72.4538 23.1976 72.4528C23.9293 72.4514 24.6591 72.3778 25.3764 72.2331C25.3288 73.6155 24.74 74.9238 23.7369 75.8762C22.7339 76.8287 21.3968 77.349 20.0138 77.3251C18.6308 77.3011 17.3126 76.7349 16.3431 75.7483C15.3735 74.7617 14.8304 73.4338 14.8306 72.0506ZM22.1616 79.8423V79.9831C22.1616 80.5126 21.9513 81.0204 21.5768 81.3948C21.2024 81.7692 20.6946 81.9796 20.1651 81.9796C19.6356 81.9796 19.1278 81.7692 18.7534 81.3948C18.379 81.0204 18.1686 80.5126 18.1686 79.9831V79.8721C19.481 80.1978 20.8543 80.1875 22.1616 79.8423ZM28.6199 91.8816C28.2596 92.2436 27.8311 92.5306 27.3592 92.7259C26.8873 92.9213 26.3814 93.0211 25.8706 93.0196H14.3408C13.3102 93.0184 12.3222 92.6085 11.5934 91.8797C10.8647 91.151 10.4547 90.1629 10.4536 89.1323C10.4537 88.1301 10.7261 87.1466 11.2416 86.2871C11.7572 85.4277 12.4965 84.7244 13.3807 84.2524L16.2511 82.7236C16.6885 83.3494 17.2697 83.8613 17.9458 84.2161C18.622 84.5709 19.3733 84.7583 20.1369 84.7627C20.9005 84.767 21.6539 84.5881 22.3341 84.2411C23.0142 83.894 23.6012 83.3888 24.0457 82.768L26.8304 84.2522C27.7157 84.723 28.4559 85.426 28.9717 86.2858C29.4875 87.1456 29.7593 88.1297 29.7579 89.1323C29.7594 89.6431 29.6596 90.149 29.4642 90.6209C29.2689 91.0928 28.9819 91.5213 28.6199 91.8816Z" fill="black"/>
<path d="M51.1161 54.7163C51.6083 54.3005 51.9739 53.7987 52.2411 53.2251C52.5083 52.6516 52.6348 52.0063 52.6348 51.2894C52.6348 50.5438 52.5223 49.9273 52.2833 49.4111C52.0442 48.9092 51.7348 48.4791 51.3411 48.1206C50.9614 47.7622 50.5114 47.4754 50.0193 47.246C49.5271 47.0166 49.0209 46.8015 48.5006 46.6151C47.9803 46.4287 47.474 46.2423 46.9819 46.0702C46.5202 45.9093 46.077 45.6977 45.66 45.4393C45.2804 45.1956 44.9569 44.8945 44.7179 44.536C44.4929 44.1775 44.3804 43.7474 44.3804 43.2169C44.3804 42.8727 44.4366 42.5573 44.5491 42.2562C44.6616 41.9694 44.8585 41.7113 45.1116 41.5106C45.3647 41.3099 45.7022 41.1378 46.11 41.0231C46.5178 40.9084 47.0241 40.851 47.6006 40.851C48.1068 40.851 48.5709 40.9084 48.9927 41.0231C49.6461 41.1993 50.2781 41.4494 50.8771 41.7687C51.088 41.8834 51.2427 41.9407 51.327 41.9407C51.3833 41.9407 51.4395 41.9264 51.4817 41.8834C51.5239 41.8547 51.5661 41.7974 51.5802 41.7257C51.6083 41.654 51.6224 41.5536 51.6364 41.4389C51.6505 41.3099 51.6505 41.1665 51.6505 40.9944C51.6505 40.8654 51.6505 40.7363 51.6364 40.6359C51.6224 40.5356 51.6083 40.4352 51.5942 40.3635C51.5802 40.2775 51.552 40.2201 51.5239 40.1484C51.4824 40.0741 51.4303 40.0064 51.3692 39.9477C51.2989 39.876 51.1583 39.79 50.9614 39.6896C50.7646 39.5892 50.5396 39.4889 50.2865 39.4172C50.0333 39.3311 49.7802 39.2595 49.499 39.1878C49.2177 39.1161 48.9506 39.0731 48.6834 39.0444L48.9646 36.3918C48.9646 36.3201 48.9506 36.2627 48.9365 36.2054C48.9224 36.148 48.8802 36.105 48.8099 36.062C48.7236 36.0123 48.6276 35.9829 48.5287 35.9759C48.4021 35.9616 48.2475 35.9473 48.0506 35.9473C47.8678 35.9473 47.7272 35.9473 47.6147 35.9616C47.5162 35.9759 47.4319 36.0046 47.3615 36.0333C47.3053 36.062 47.2631 36.105 47.235 36.1623C47.2069 36.2054 47.1928 36.2627 47.1928 36.3201L46.9397 39.0014C46.1381 39.0587 45.421 39.2021 44.8163 39.4459C44.2116 39.6896 43.7054 40.0051 43.3117 40.3922C42.9179 40.7793 42.6086 41.2238 42.4117 41.74C42.2148 42.2562 42.1164 42.8011 42.1164 43.4033C42.1164 44.1489 42.2289 44.7654 42.4679 45.2816C42.707 45.7835 43.0164 46.2136 43.396 46.5721C43.7757 46.9305 44.2116 47.2173 44.7038 47.4611C45.196 47.7048 45.6882 47.9055 46.1944 48.0919C46.7006 48.2783 47.1928 48.4647 47.685 48.6368C48.1771 48.8232 48.6131 49.0383 48.9927 49.282C49.3724 49.5401 49.6818 49.8412 49.9208 50.1854C50.1599 50.5295 50.2724 50.974 50.2724 51.4902C50.2724 52.3361 49.949 53.01 49.3162 53.5119C48.6834 54.0137 47.7412 54.2575 46.5178 54.2575C45.4727 54.2717 44.4368 54.0566 43.4804 53.6266C43.1429 53.4689 42.8617 53.3255 42.6508 53.1964C42.4398 53.0674 42.2851 53.01 42.1726 53.01C42.0883 53.01 42.032 53.0244 41.9758 53.0531C41.9195 53.0817 41.8773 53.1391 41.8352 53.2251C41.807 53.3111 41.7789 53.4115 41.7508 53.5406C41.7367 53.6696 41.7227 53.8273 41.7227 54.0281C41.7227 54.2862 41.7367 54.5012 41.7789 54.6446C41.807 54.788 41.8773 54.9171 41.9617 55.0031C42.0461 55.0891 42.2008 55.1895 42.3836 55.3042C42.5804 55.4046 42.8195 55.5049 43.0867 55.6053C43.3679 55.7057 43.6773 55.7917 44.0288 55.8777C44.3804 55.9638 44.7741 56.0355 45.1819 56.0785L44.8866 58.9462C44.8726 59.0179 44.8726 59.0752 44.8866 59.1326C44.9147 59.1899 44.9569 59.2329 45.0272 59.2616C45.0976 59.2903 45.196 59.319 45.3085 59.3476C45.421 59.3763 45.5897 59.3763 45.7866 59.3763C45.9553 59.3763 46.096 59.362 46.2085 59.3476C46.321 59.3333 46.4053 59.3046 46.4616 59.2759C46.5178 59.2473 46.56 59.2043 46.5881 59.1612C46.6163 59.1182 46.6303 59.0609 46.6303 59.0035L46.9116 56.1215C47.7117 56.0937 48.5033 55.9439 49.2599 55.677C50.0333 55.4619 50.6239 55.1321 51.1161 54.7163Z" fill="black"/>
</g>
<defs>
<clipPath id="clip0_738_3100">
<rect width="95" height="95" fill="white"/>
</clipPath>
</defs>
</svg>
